<?xml version="1.0" encoding="iso-8859-1"?>
<!-- Generator: Adobe Illustrator 19.0.0, SVG Export Plug-In . SVG Version: 6.00 Build 0)  -->
<svg version="1.1" id="Capa_1" xmlns="http://www.w3.org/2000/svg" xmlns:xlink="http://www.w3.org/1999/xlink" x="0px" y="0px"
	 viewBox="0 0 512 512" style="enable-background:new 0 0 512 512;" xml:space="preserve">
<rect x="101.053" y="286.813" style="fill:#00A6FF;" width="88.866" height="178.741"/>
<rect x="145.481" y="286.813" style="fill:#006EF5;" width="44.438" height="178.741"/>
<rect x="213.802" y="229.488" style="fill:#FFAA1E;" width="88.866" height="236.066"/>
<rect x="258.23" y="229.488" style="fill:#FF8900;" width="44.438" height="236.066"/>
<rect x="326.551" y="176.113" style="fill:#00E8F2;" width="88.866" height="289.441"/>
<rect x="370.979" y="176.113" style="fill:#00CACA;" width="44.438" height="289.441"/>
<polygon style="fill:#8B8992;" points="468.486,465.553 41.341,465.553 41.341,38.408 71.333,38.408 71.333,435.561 
	468.486,435.561 "/>
<g>
	<polygon style="fill:#FF1A4B;" points="22.006,87.591 0,67.213 57.737,4.858 112.922,67.488 90.418,87.316 57.184,49.598 	"/>
	<polygon style="fill:#FF1A4B;" points="449.368,507.142 429.541,484.64 467.26,451.405 429.266,416.227 449.644,394.219 
		512,451.957 	"/>
</g>
<g>
</g>
<g>
</g>
<g>
</g>
<g>
</g>
<g>
</g>
<g>
</g>
<g>
</g>
<g>
</g>
<g>
</g>
<g>
</g>
<g>
</g>
<g>
</g>
<g>
</g>
<g>
</g>
<g>
</g>
</svg>
