<?xml version="1.0" encoding="iso-8859-1"?>
<!-- Generator: Adobe Illustrator 19.0.0, SVG Export Plug-In . SVG Version: 6.00 Build 0)  -->
<svg version="1.1" id="Capa_1" xmlns="http://www.w3.org/2000/svg" xmlns:xlink="http://www.w3.org/1999/xlink" x="0px" y="0px"
	 viewBox="0 0 480 480" style="enable-background:new 0 0 480 480;" xml:space="preserve">
<linearGradient id="SVGID_1_" gradientUnits="userSpaceOnUse" x1="-13.6052" y1="610.6051" x2="-47.1954" y2="552.435" gradientTransform="matrix(8 0 0 -8 455 4941)">
	<stop  offset="0" style="stop-color:#40E0D0"/>
	<stop  offset="0.514" style="stop-color:#FF8C00"/>
	<stop  offset="1" style="stop-color:#FF0080"/>
</linearGradient>
<path style="fill:url(#SVGID_1_);" d="M472,464h-24v-16c0-4.8-3.2-8-8-8s-8,3.2-8,8v16h-32v-16c0-4.8-3.2-8-8-8s-8,3.2-8,8v16h-32
	v-16c0-4.8-3.2-8-8-8s-8,3.2-8,8v16h-32v-16c0-4.8-3.2-8-8-8s-8,3.2-8,8v16h-32v-16c0-4.8-3.2-8-8-8s-8,3.2-8,8v16h-32v-16
	c0-4.8-3.2-8-8-8s-8,3.2-8,8v16h-32v-16c0-4.8-3.2-8-8-8s-8,3.2-8,8v16h-32v-16c0-4.8-3.2-8-8-8s-8,3.2-8,8v16H64v-16
	c0-4.8-3.2-8-8-8s-8,3.2-8,8v16H16v-40h392c4.8,0,8-3.2,8-8v-96c0-4.8-3.2-8-8-8H16v-32h144c4.8,0,8-3.2,8-8v-96c0-4.8-3.2-8-8-8H16
	v-32h272c4.8,0,8-3.2,8-8V32c0-4.8-3.2-8-8-8H16V8c0-4.8-3.2-8-8-8S0,3.2,0,8v464c0,4.8,3.2,8,8,8h464c4.8,0,8-3.2,8-8
	S476.8,464,472,464z M400,328v80H16v-80H400z M152,184v80H16v-80H152z M280,40v80H16V40H280z"/>
<g>
</g>
<g>
</g>
<g>
</g>
<g>
</g>
<g>
</g>
<g>
</g>
<g>
</g>
<g>
</g>
<g>
</g>
<g>
</g>
<g>
</g>
<g>
</g>
<g>
</g>
<g>
</g>
<g>
</g>
</svg>
