<?xml version="1.0" encoding="iso-8859-1"?>
<!-- Generator: Adobe Illustrator 19.0.0, SVG Export Plug-In . SVG Version: 6.00 Build 0)  -->
<svg version="1.1" id="Capa_1" xmlns="http://www.w3.org/2000/svg" xmlns:xlink="http://www.w3.org/1999/xlink" x="0px" y="0px"
	 viewBox="0 0 480 480" style="enable-background:new 0 0 480 480;" xml:space="preserve">
<path style="fill:#4CD5E7;" d="M472,464h-24v-16c0-4.8-3.2-8-8-8s-8,3.2-8,8v16h-32v-16c0-4.8-3.2-8-8-8s-8,3.2-8,8v16h-32v-16
	c0-4.8-3.2-8-8-8s-8,3.2-8,8v16h-32v-16c0-4.8-3.2-8-8-8s-8,3.2-8,8v16h-32v-16c0-4.8-3.2-8-8-8s-8,3.2-8,8v16h-32v-16
	c0-4.8-3.2-8-8-8s-8,3.2-8,8v16h-32v-16c0-4.8-3.2-8-8-8s-8,3.2-8,8v16h-32v-16c0-4.8-3.2-8-8-8s-8,3.2-8,8v16H64v-16
	c0-4.8-3.2-8-8-8s-8,3.2-8,8v16H16V8c0-4.8-3.2-8-8-8S0,3.2,0,8v464c0,4.8,3.2,8,8,8h464c4.8,0,8-3.2,8-8S476.8,464,472,464z"/>
<path style="fill:#FECC02;" d="M40,384c-4.8,0-8-3.2-8-8c0-2.4,0.8-4,2.4-5.6l160-160c3.2-3.2,8-3.2,11.2,0l98.4,98.4l122.4-122.4
	c3.2-3.2,8-3.2,11.2,0s3.2,8,0,11.2l-128,128c-3.2,3.2-8,3.2-11.2,0L200,227.2L45.6,381.6C44,383.2,42.4,384,40,384z"/>
<path style="fill:#FC605B;" d="M432,392c-2.4,0-4-0.8-5.6-2.4L288,251.2l-82.4,82.4c-3.2,3.2-8,3.2-11.2,0l-160-160
	c-3.2-3.2-3.2-8,0-11.2s8-3.2,11.2,0L200,316.8l82.4-82.4c3.2-3.2,8-3.2,11.2,0l144,144c3.2,3.2,3.2,8,0,11.2
	C436,391.2,434.4,392,432,392z"/>
<g>
</g>
<g>
</g>
<g>
</g>
<g>
</g>
<g>
</g>
<g>
</g>
<g>
</g>
<g>
</g>
<g>
</g>
<g>
</g>
<g>
</g>
<g>
</g>
<g>
</g>
<g>
</g>
<g>
</g>
</svg>
