<?xml version="1.0" encoding="iso-8859-1"?>
<!-- Generator: Adobe Illustrator 19.0.0, SVG Export Plug-In . SVG Version: 6.00 Build 0)  -->
<svg version="1.1" id="Capa_1" xmlns="http://www.w3.org/2000/svg" xmlns:xlink="http://www.w3.org/1999/xlink" x="0px" y="0px"
	 viewBox="0 0 512 512" style="enable-background:new 0 0 512 512;" xml:space="preserve">
<path style="fill:#C1001F;" d="M240,361c0,24.814-20.186,45-45,45h-30c-19.773,0-19.854-30,0-30h30c8.262,0,15-6.724,15-15v-27.48
	c0-19.773,30-19.854,30,0V361z"/>
<path style="fill:#E50027;" d="M437,166c-8.401,0-15,6.599-15,15v120c0,8.399,6.599,15,15,15c41.7,0,75-33.9,75-75
	C512,199.6,478.4,166,437,166z"/>
<path style="fill:#C1001F;" d="M512,241c0,41.1-33.3,75-75,75c-8.401,0-15-6.601-15-15v-60H512z"/>
<path style="fill:#CAE8F9;" d="M367.999,49.9l-72.297,53.699C267.8,124.6,230.999,136,195,136c-8.401,0-15,6.599-15,15v180
	c0,8.399,6.599,15,15,15c9.302,0,18.3,0.899,27.598,2.399c25.803,4.2,52.402,14.702,73.404,30.601l71.997,54
	c9.602,7.2,24.001,0.299,24.001-12V61.899C392,49.6,377.901,42.4,367.999,49.9z"/>
<path style="fill:#B7E0F6;" d="M180,241h212v180c0,12.299-14.399,19.2-24.001,11.999l-71.997-54
	c-21.002-15.899-47.601-26.4-73.404-30.601C213.3,346.899,204.302,346,195,346c-8.401,0-15-6.601-15-15V241z"/>
<path style="fill:#FD003A;" d="M75,136c-41.4,0-75,33.6-75,75v60c0,41.4,33.6,75,75,75h120V136H75z"/>
<path style="fill:#C1001F;" d="M135,496c-24.814,0-45-20.186-45-45V331c0-8.291,6.709-15,15-15h60c8.291,0,15,6.709,15,15v120
	C180,475.814,159.814,496,135,496z"/>
<path style="fill:#E50027;" d="M0,241h195v105H75c-41.4,0-75-33.6-75-75V241z"/>
<path style="fill:#FD003A;" d="M407,16c-24.902,0-45,20.099-45,45v360c0,24.899,20.098,45,45,45s45-20.101,45-45V61
	C452,36.099,431.902,16,407,16z"/>
<path style="fill:#E50027;" d="M135,226H75c-8.291,0-15-6.709-15-15s6.709-15,15-15h60c8.291,0,15,6.709,15,15S143.291,226,135,226z
	"/>
<path style="fill:#C1001F;" d="M135,286H75c-8.291,0-15-6.709-15-15s6.709-15,15-15h60c8.291,0,15,6.709,15,15S143.291,286,135,286z
	"/>
<path style="fill:#E50027;" d="M452,241v180c0,24.899-20.098,45-45,45s-45-20.101-45-45V241H452z"/>
<g>
</g>
<g>
</g>
<g>
</g>
<g>
</g>
<g>
</g>
<g>
</g>
<g>
</g>
<g>
</g>
<g>
</g>
<g>
</g>
<g>
</g>
<g>
</g>
<g>
</g>
<g>
</g>
<g>
</g>
</svg>
